<svg xmlns="http://www.w3.org/2000/svg" viewBox="0 0 48 48" width="48" height="48">
  <!-- V2F: Corrugated A + Zen Coffee Swirl — AURA SPACE Favicon -->
  <polygon points="24,4 4,44 12,44 16,34 32,34 36,44 44,44" fill="none" stroke="#C9A962" stroke-width="2" stroke-linejoin="round"/>
  <line x1="13" y1="38" x2="35" y2="38" stroke="#C9A962" stroke-width="0.7" opacity="0.5"/>
  <line x1="14.5" y1="34" x2="33.5" y2="34" stroke="#C9A962" stroke-width="0.7" opacity="0.5"/>
  <line x1="16" y1="30" x2="32" y2="30" stroke="#C9A962" stroke-width="0.7" opacity="0.5"/>
  <line x1="17.5" y1="26" x2="30.5" y2="26" stroke="#C9A962" stroke-width="0.7" opacity="0.5"/>
  <line x1="19" y1="22" x2="29" y2="22" stroke="#C9A962" stroke-width="0.7" opacity="0.5"/>
  <line x1="20.5" y1="18" x2="27.5" y2="18" stroke="#C9A962" stroke-width="0.7" opacity="0.5"/>
  <line x1="22" y1="14" x2="26" y2="14" stroke="#C9A962" stroke-width="0.7" opacity="0.5"/>
  <circle cx="24" cy="28" r="6" fill="none" stroke="#C9A962" stroke-width="1.5"/>
  <path d="M21,28 C21,25 24,25 24,28 C24,31 27,31 27,28" fill="none" stroke="#C9A962" stroke-width="1.2" stroke-linecap="round"/>
</svg>
