<?xml version="1.0" encoding="UTF-8"?>
<!--
  Standee Check-in AURA — Print spec
  Size: A2 (420 × 594 mm) — viewBox 420×594
  Print: 1200 DPI offset / inkjet, vinyl backing 250gsm matte
  
  QR URL: https://fnb-caffe-container.pages.dev/checkin.html
  
  Anh Còn: print 1 cái đặt cạnh quầy thu ngân, 1 cái góc rooftop.
-->
<svg xmlns="http://www.w3.org/2000/svg" 
     viewBox="0 0 420 594" 
     width="420mm" 
     height="594mm">
  
  <defs>
    <linearGradient id="bgGrad" x1="0" y1="0" x2="0" y2="1">
      <stop offset="0%" stop-color="#0A0A0A"/>
      <stop offset="50%" stop-color="#1A1A1A"/>
      <stop offset="100%" stop-color="#0A0A0A"/>
    </linearGradient>
    
    <linearGradient id="goldGrad" x1="0" y1="0" x2="1" y2="1">
      <stop offset="0%" stop-color="#C9A200"/>
      <stop offset="50%" stop-color="#FFD700"/>
      <stop offset="100%" stop-color="#FFB300"/>
    </linearGradient>
    
    <filter id="glow">
      <feGaussianBlur stdDeviation="2" result="coloredBlur"/>
      <feMerge>
        <feMergeNode in="coloredBlur"/>
        <feMergeNode in="SourceGraphic"/>
      </feMerge>
    </filter>
  </defs>
  
  <rect width="420" height="594" fill="url(#bgGrad)"/>
  
  <!-- Corner brackets -->
  <g stroke="#C9A200" stroke-width="2" fill="none" opacity="0.6">
    <path d="M 20,20 L 50,20 M 20,20 L 20,50"/>
    <path d="M 400,20 L 370,20 M 400,20 L 400,50"/>
    <path d="M 20,574 L 50,574 M 20,574 L 20,544"/>
    <path d="M 400,574 L 370,574 M 400,574 L 400,544"/>
  </g>
  
  <!-- Logo + Tagline -->
  <g text-anchor="middle">
    <text x="210" y="60" font-family="Playfair Display, serif" font-size="42" 
          fill="url(#goldGrad)" font-weight="bold" letter-spacing="6"
          filter="url(#glow)">AURA</text>
    <text x="210" y="80" font-family="Inter, sans-serif" font-size="10" 
          fill="#B0B0B0" letter-spacing="3">CONTAINER ROOFTOP · SA ĐÉC</text>
  </g>
  
  <line x1="80" y1="100" x2="340" y2="100" stroke="#C9A200" stroke-width="0.5" opacity="0.4"/>
  
  <!-- Camera icon -->
  <g transform="translate(210, 140)">
    <circle r="40" fill="#C9A200" opacity="0.1"/>
    <circle r="36" fill="none" stroke="#FFD700" stroke-width="1"/>
    <text text-anchor="middle" y="14" font-size="60">📸</text>
  </g>
  
  <!-- Headline -->
  <g text-anchor="middle">
    <text x="210" y="220" font-family="Playfair Display, serif" font-size="28" 
          fill="#FAFAFA" font-weight="bold">CHECK-IN AURA</text>
    <text x="210" y="248" font-family="Inter, sans-serif" font-size="16" 
          fill="#FFD700" font-weight="600">🎁 Tặng đến 20.000đ vào ví</text>
    <text x="210" y="268" font-family="Inter, sans-serif" font-size="11" 
          fill="#B0B0B0">hoặc giảm 10% trên đơn hiện tại</text>
  </g>
  
  <!-- QR Code: REAL — pointing to /checkin.html -->
  <g transform="translate(135, 290)">
    <rect width="150" height="150" fill="#FFFFFF" rx="6"/>
    <g transform="scale(40.54)">
      <path d="M0.2,0.2H0.3V0.3H0.2zM0.3,0.2H0.4V0.3H0.3zM0.4,0.2H0.5V0.3H0.4zM0.5,0.2H0.6V0.3H0.5zM0.6,0.2H0.7V0.3H0.6zM0.7,0.2H0.8V0.3H0.7zM0.8,0.2H0.9V0.3H0.8zM1.2,0.2H1.3V0.3H1.2zM1.6,0.2H1.7V0.3H1.6zM2.4,0.2H2.5V0.3H2.4zM2.8,0.2H2.9V0.3H2.8zM2.9,0.2H3V0.3H2.9zM3,0.2H3.1V0.3H3zM3.1,0.2H3.2V0.3H3.1zM3.2,0.2H3.3V0.3H3.2zM3.3,0.2H3.4V0.3H3.3zM3.4,0.2H3.5V0.3H3.4zM0.2,0.3H0.3V0.4H0.2zM0.8,0.3H0.9V0.4H0.8zM1,0.3H1.1V0.4H1zM1.1,0.3H1.2V0.4H1.1zM1.3,0.3H1.4V0.4H1.3zM1.4,0.3H1.5V0.4H1.4zM1.5,0.3H1.6V0.4H1.5zM1.6,0.3H1.7V0.4H1.6zM1.9,0.3H2V0.4H1.9zM2.3,0.3H2.4V0.4H2.3zM2.4,0.3H2.5V0.4H2.4zM2.8,0.3H2.9V0.4H2.8zM3.4,0.3H3.5V0.4H3.4zM0.2,0.4H0.3V0.5H0.2zM0.4,0.4H0.5V0.5H0.4zM0.5,0.4H0.6V0.5H0.5zM0.6,0.4H0.7V0.5H0.6zM0.8,0.4H0.9V0.5H0.8zM1,0.4H1.1V0.5H1zM1.3,0.4H1.4V0.5H1.3zM1.5,0.4H1.6V0.5H1.5zM1.7,0.4H1.8V0.5H1.7zM1.9,0.4H2V0.5H1.9zM2,0.4H2.1V0.5H2zM2.1,0.4H2.2V0.5H2.1zM2.2,0.4H2.3V0.5H2.2zM2.3,0.4H2.4V0.5H2.3zM2.5,0.4H2.6V0.5H2.5zM2.6,0.4H2.7V0.5H2.6zM2.8,0.4H2.9V0.5H2.8zM3,0.4H3.1V0.5H3zM3.1,0.4H3.2V0.5H3.1zM3.2,0.4H3.3V0.5H3.2zM3.4,0.4H3.5V0.5H3.4zM0.2,0.5H0.3V0.6H0.2zM0.4,0.5H0.5V0.6H0.4zM0.5,0.5H0.6V0.6H0.5zM0.6,0.5H0.7V0.6H0.6zM0.8,0.5H0.9V0.6H0.8zM1,0.5H1.1V0.6H1zM1.1,0.5H1.2V0.6H1.1zM1.4,0.5H1.5V0.6H1.4zM2.1,0.5H2.2V0.6H2.1zM2.3,0.5H2.4V0.6H2.3zM2.4,0.5H2.5V0.6H2.4zM2.6,0.5H2.7V0.6H2.6zM2.8,0.5H2.9V0.6H2.8zM3,0.5H3.1V0.6H3zM3.1,0.5H3.2V0.6H3.1zM3.2,0.5H3.3V0.6H3.2zM3.4,0.5H3.5V0.6H3.4zM0.2,0.6H0.3V0.7H0.2zM0.4,0.6H0.5V0.7H0.4zM0.5,0.6H0.6V0.7H0.5zM0.6,0.6H0.7V0.7H0.6zM0.8,0.6H0.9V0.7H0.8zM1.1,0.6H1.2V0.7H1.1zM1.2,0.6H1.3V0.7H1.2zM1.3,0.6H1.4V0.7H1.3zM1.4,0.6H1.5V0.7H1.4zM1.7,0.6H1.8V0.7H1.7zM2,0.6H2.1V0.7H2zM2.3,0.6H2.4V0.7H2.3zM2.5,0.6H2.6V0.7H2.5zM2.8,0.6H2.9V0.7H2.8zM3,0.6H3.1V0.7H3zM3.1,0.6H3.2V0.7H3.1zM3.2,0.6H3.3V0.7H3.2zM3.4,0.6H3.5V0.7H3.4zM0.2,0.7H0.3V0.8H0.2zM0.8,0.7H0.9V0.8H0.8zM1.1,0.7H1.2V0.8H1.1zM1.2,0.7H1.3V0.8H1.2zM1.3,0.7H1.4V0.8H1.3zM1.8,0.7H1.9V0.8H1.8zM2.2,0.7H2.3V0.8H2.2zM2.8,0.7H2.9V0.8H2.8zM3.4,0.7H3.5V0.8H3.4zM0.2,0.8H0.3V0.9H0.2zM0.3,0.8H0.4V0.9H0.3zM0.4,0.8H0.5V0.9H0.4zM0.5,0.8H0.6V0.9H0.5zM0.6,0.8H0.7V0.9H0.6zM0.7,0.8H0.8V0.9H0.7zM0.8,0.8H0.9V0.9H0.8zM1,0.8H1.1V0.9H1zM1.2,0.8H1.3V0.9H1.2zM1.4,0.8H1.5V0.9H1.4zM1.6,0.8H1.7V0.9H1.6zM1.8,0.8H1.9V0.9H1.8zM2,0.8H2.1V0.9H2zM2.2,0.8H2.3V0.9H2.2zM2.4,0.8H2.5V0.9H2.4zM2.6,0.8H2.7V0.9H2.6zM2.8,0.8H2.9V0.9H2.8zM2.9,0.8H3V0.9H2.9zM3,0.8H3.1V0.9H3zM3.1,0.8H3.2V0.9H3.1zM3.2,0.8H3.3V0.9H3.2zM3.3,0.8H3.4V0.9H3.3zM3.4,0.8H3.5V0.9H3.4zM1,0.9H1.1V1H1zM1.2,0.9H1.3V1H1.2zM1.6,0.9H1.7V1H1.6zM2,0.9H2.1V1H2zM2.4,0.9H2.5V1H2.4zM2.6,0.9H2.7V1H2.6zM0.2,1H0.3V1.1H0.2zM0.8,1H0.9V1.1H0.8zM1,1H1.1V1.1H1zM1.1,1H1.2V1.1H1.1zM1.4,1H1.5V1.1H1.4zM1.5,1H1.6V1.1H1.5zM1.6,1H1.7V1.1H1.6zM1.7,1H1.8V1.1H1.7zM1.8,1H1.9V1.1H1.8zM1.9,1H2V1.1H1.9zM2.4,1H2.5V1.1H2.4zM2.5,1H2.6V1.1H2.5zM2.6,1H2.7V1.1H2.6zM2.7,1H2.8V1.1H2.7zM2.8,1H2.9V1.1H2.8zM3.1,1H3.2V1.1H3.1zM3.2,1H3.3V1.1H3.2zM3.3,1H3.4V1.1H3.3zM0.2,1.1H0.3V1.2H0.2zM0.3,1.1H0.4V1.2H0.3zM0.4,1.1H0.5V1.2H0.4zM0.5,1.1H0.6V1.2H0.5zM0.6,1.1H0.7V1.2H0.6zM0.7,1.1H0.8V1.2H0.7zM0.9,1.1H1V1.2H0.9zM1,1.1H1.1V1.2H1zM1.3,1.1H1.4V1.2H1.3zM1.4,1.1H1.5V1.2H1.4zM1.6,1.1H1.7V1.2H1.6zM1.7,1.1H1.8V1.2H1.7zM2,1.1H2.1V1.2H2zM2.1,1.1H2.2V1.2H2.1zM2.3,1.1H2.4V1.2H2.3zM2.4,1.1H2.5V1.2H2.4zM2.5,1.1H2.6V1.2H2.5zM3,1.1H3.1V1.2H3zM3.1,1.1H3.2V1.2H3.1zM3.2,1.1H3.3V1.2H3.2zM0.2,1.2H0.3V1.3H0.2zM0.7,1.2H0.8V1.3H0.7zM0.8,1.2H0.9V1.3H0.8zM1,1.2H1.1V1.3H1zM1.1,1.2H1.2V1.3H1.1zM1.2,1.2H1.3V1.3H1.2zM1.3,1.2H1.4V1.3H1.3zM1.4,1.2H1.5V1.3H1.4zM1.7,1.2H1.8V1.3H1.7zM2,1.2H2.1V1.3H2zM2.2,1.2H2.3V1.3H2.2zM2.4,1.2H2.5V1.3H2.4zM3,1.2H3.1V1.3H3zM3.2,1.2H3.3V1.3H3.2zM0.3,1.3H0.4V1.4H0.3zM0.4,1.3H0.5V1.4H0.4zM0.5,1.3H0.6V1.4H0.5zM0.7,1.3H0.8V1.4H0.7zM1.1,1.3H1.2V1.4H1.1zM1.2,1.3H1.3V1.4H1.2zM1.4,1.3H1.5V1.4H1.4zM1.6,1.3H1.7V1.4H1.6zM1.7,1.3H1.8V1.4H1.7zM1.8,1.3H1.9V1.4H1.8zM2.1,1.3H2.2V1.4H2.1zM2.2,1.3H2.3V1.4H2.2zM2.7,1.3H2.8V1.4H2.7zM2.8,1.3H2.9V1.4H2.8zM2.9,1.3H3V1.4H2.9zM3,1.3H3.1V1.4H3zM3.1,1.3H3.2V1.4H3.1zM3.2,1.3H3.3V1.4H3.2zM3.3,1.3H3.4V1.4H3.3zM3.4,1.3H3.5V1.4H3.4zM0.3,1.4H0.4V1.5H0.3zM0.7,1.4H0.8V1.5H0.7zM0.8,1.4H0.9V1.5H0.8zM0.9,1.4H1V1.5H0.9zM1,1.4H1.1V1.5H1zM1.4,1.4H1.5V1.5H1.4zM1.5,1.4H1.6V1.5H1.5zM1.6,1.4H1.7V1.5H1.6zM1.8,1.4H1.9V1.5H1.8zM1.9,1.4H2V1.5H1.9zM2,1.4H2.1V1.5H2zM2.2,1.4H2.3V1.5H2.2zM2.6,1.4H2.7V1.5H2.6zM2.8,1.4H2.9V1.5H2.8zM2.9,1.4H3V1.5H2.9zM3.3,1.4H3.4V1.5H3.3zM3.4,1.4H3.5V1.5H3.4zM0.4,1.5H0.5V1.6H0.4zM0.5,1.5H0.6V1.6H0.5zM0.6,1.5H0.7V1.6H0.6zM1.1,1.5H1.2V1.6H1.1zM1.3,1.5H1.4V1.6H1.3zM1.4,1.5H1.5V1.6H1.4zM1.5,1.5H1.6V1.6H1.5zM1.6,1.5H1.7V1.6H1.6zM1.8,1.5H1.9V1.6H1.8zM2.2,1.5H2.3V1.6H2.2zM2.5,1.5H2.6V1.6H2.5zM2.8,1.5H2.9V1.6H2.8zM2.9,1.5H3V1.6H2.9zM3.1,1.5H3.2V1.6H3.1zM3.3,1.5H3.4V1.6H3.3zM3.4,1.5H3.5V1.6H3.4zM0.2,1.6H0.3V1.7H0.2zM0.5,1.6H0.6V1.7H0.5zM0.6,1.6H0.7V1.7H0.6zM0.7,1.6H0.8V1.7H0.7zM0.8,1.6H0.9V1.7H0.8zM0.9,1.6H1V1.7H0.9zM1,1.6H1.1V1.7H1zM1.3,1.6H1.4V1.7H1.3zM1.5,1.6H1.6V1.7H1.5zM1.6,1.6H1.7V1.7H1.6zM2,1.6H2.1V1.7H2zM2.1,1.6H2.2V1.7H2.1zM2.4,1.6H2.5V1.7H2.4zM2.7,1.6H2.8V1.7H2.7zM2.8,1.6H2.9V1.7H2.8zM3,1.6H3.1V1.7H3zM3.3,1.6H3.4V1.7H3.3zM0.2,1.7H0.3V1.8H0.2zM0.4,1.7H0.5V1.8H0.4zM0.5,1.7H0.6V1.8H0.5zM1.2,1.7H1.3V1.8H1.2zM1.7,1.7H1.8V1.8H1.7zM2.1,1.7H2.2V1.8H2.1zM2.4,1.7H2.5V1.8H2.4zM2.5,1.7H2.6V1.8H2.5zM2.6,1.7H2.7V1.8H2.6zM2.7,1.7H2.8V1.8H2.7zM2.9,1.7H3V1.8H2.9zM3.1,1.7H3.2V1.8H3.1zM3.2,1.7H3.3V1.8H3.2zM3.4,1.7H3.5V1.8H3.4zM0.2,1.8H0.3V1.9H0.2zM0.3,1.8H0.4V1.9H0.3zM0.4,1.8H0.5V1.9H0.4zM0.5,1.8H0.6V1.9H0.5zM0.6,1.8H0.7V1.9H0.6zM0.8,1.8H0.9V1.9H0.8zM0.9,1.8H1V1.9H0.9zM1.1,1.8H1.2V1.9H1.1zM1.2,1.8H1.3V1.9H1.2zM1.6,1.8H1.7V1.9H1.6zM1.9,1.8H2V1.9H1.9zM2.1,1.8H2.2V1.9H2.1zM2.4,1.8H2.5V1.9H2.4zM2.5,1.8H2.6V1.9H2.5zM2.6,1.8H2.7V1.9H2.6zM2.7,1.8H2.8V1.9H2.7zM2.9,1.8H3V1.9H2.9zM3,1.8H3.1V1.9H3zM3.4,1.8H3.5V1.9H3.4zM0.2,1.9H0.3V2H0.2zM0.4,1.9H0.5V2H0.4zM0.5,1.9H0.6V2H0.5zM0.9,1.9H1V2H0.9zM1,1.9H1.1V2H1zM1.1,1.9H1.2V2H1.1zM1.3,1.9H1.4V2H1.3zM1.4,1.9H1.5V2H1.4zM1.6,1.9H1.7V2H1.6zM1.7,1.9H1.8V2H1.7zM1.9,1.9H2V2H1.9zM2,1.9H2.1V2H2zM2.1,1.9H2.2V2H2.1zM2.2,1.9H2.3V2H2.2zM2.3,1.9H2.4V2H2.3zM2.5,1.9H2.6V2H2.5zM2.6,1.9H2.7V2H2.6zM2.8,1.9H2.9V2H2.8zM3.1,1.9H3.2V2H3.1zM3.2,1.9H3.3V2H3.2zM3.3,1.9H3.4V2H3.3zM3.4,1.9H3.5V2H3.4zM0.3,2H0.4V2.1H0.3zM0.4,2H0.5V2.1H0.4zM0.8,2H0.9V2.1H0.8zM0.9,2H1V2.1H0.9zM1,2H1.1V2.1H1zM1.1,2H1.2V2.1H1.1zM1.7,2H1.8V2.1H1.7zM1.8,2H1.9V2.1H1.8zM2.1,2H2.2V2.1H2.1zM2.3,2H2.4V2.1H2.3zM2.4,2H2.5V2.1H2.4zM2.5,2H2.6V2.1H2.5zM2.6,2H2.7V2.1H2.6zM2.7,2H2.8V2.1H2.7zM2.9,2H3V2.1H2.9zM3.1,2H3.2V2.1H3.1zM3.2,2H3.3V2.1H3.2zM3.4,2H3.5V2.1H3.4zM0.2,2.1H0.3V2.2H0.2zM0.4,2.1H0.5V2.2H0.4zM0.5,2.1H0.6V2.2H0.5zM0.9,2.1H1V2.2H0.9zM1.2,2.1H1.3V2.2H1.2zM1.3,2.1H1.4V2.2H1.3zM1.5,2.1H1.6V2.2H1.5zM1.6,2.1H1.7V2.2H1.6zM1.7,2.1H1.8V2.2H1.7zM1.9,2.1H2V2.2H1.9zM2,2.1H2.1V2.2H2zM2.1,2.1H2.2V2.2H2.1zM2.5,2.1H2.6V2.2H2.5zM2.6,2.1H2.7V2.2H2.6zM3,2.1H3.1V2.2H3zM3.1,2.1H3.2V2.2H3.1zM3.2,2.1H3.3V2.2H3.2zM3.3,2.1H3.4V2.2H3.3zM0.2,2.2H0.3V2.3H0.2zM0.4,2.2H0.5V2.3H0.4zM0.6,2.2H0.7V2.3H0.6zM0.8,2.2H0.9V2.3H0.8zM1.1,2.2H1.2V2.3H1.1zM1.2,2.2H1.3V2.3H1.2zM1.4,2.2H1.5V2.3H1.4zM1.5,2.2H1.6V2.3H1.5zM1.7,2.2H1.8V2.3H1.7zM1.8,2.2H1.9V2.3H1.8zM2.4,2.2H2.5V2.3H2.4zM2.6,2.2H2.7V2.3H2.6zM2.7,2.2H2.8V2.3H2.7zM2.9,2.2H3V2.3H2.9zM3,2.2H3.1V2.3H3zM3.1,2.2H3.2V2.3H3.1zM3.3,2.2H3.4V2.3H3.3zM0.2,2.3H0.3V2.4H0.2zM0.3,2.3H0.4V2.4H0.3zM0.5,2.3H0.6V2.4H0.5zM0.7,2.3H0.8V2.4H0.7zM1.1,2.3H1.2V2.4H1.1zM1.5,2.3H1.6V2.4H1.5zM1.6,2.3H1.7V2.4H1.6zM1.8,2.3H1.9V2.4H1.8zM1.9,2.3H2V2.4H1.9zM2,2.3H2.1V2.4H2zM2.2,2.3H2.3V2.4H2.2zM2.5,2.3H2.6V2.4H2.5zM3,2.3H3.1V2.4H3zM3.1,2.3H3.2V2.4H3.1zM3.2,2.3H3.3V2.4H3.2zM0.2,2.4H0.3V2.5H0.2zM0.4,2.4H0.5V2.5H0.4zM0.6,2.4H0.7V2.5H0.6zM0.7,2.4H0.8V2.5H0.7zM0.8,2.4H0.9V2.5H0.8zM1,2.4H1.1V2.5H1zM1.1,2.4H1.2V2.5H1.1zM1.4,2.4H1.5V2.5H1.4zM1.5,2.4H1.6V2.5H1.5zM1.6,2.4H1.7V2.5H1.6zM1.7,2.4H1.8V2.5H1.7zM1.8,2.4H1.9V2.5H1.8zM2,2.4H2.1V2.5H2zM2.4,2.4H2.5V2.5H2.4zM2.7,2.4H2.8V2.5H2.7zM2.9,2.4H3V2.5H2.9zM3,2.4H3.1V2.5H3zM3.2,2.4H3.3V2.5H3.2zM3.3,2.4H3.4V2.5H3.3zM0.2,2.5H0.3V2.6H0.2zM0.5,2.5H0.6V2.6H0.5zM0.9,2.5H1V2.6H0.9zM1,2.5H1.1V2.6H1zM1.2,2.5H1.3V2.6H1.2zM1.4,2.5H1.5V2.6H1.4zM1.6,2.5H1.7V2.6H1.6zM2.2,2.5H2.3V2.6H2.2zM2.5,2.5H2.6V2.6H2.5zM2.6,2.5H2.7V2.6H2.6zM2.8,2.5H2.9V2.6H2.8zM2.9,2.5H3V2.6H2.9zM3.1,2.5H3.2V2.6H3.1zM3.2,2.5H3.3V2.6H3.2zM3.4,2.5H3.5V2.6H3.4zM0.2,2.6H0.3V2.7H0.2zM0.3,2.6H0.4V2.7H0.3zM0.8,2.6H0.9V2.7H0.8zM0.9,2.6H1V2.7H0.9zM1,2.6H1.1V2.7H1zM1.3,2.6H1.4V2.7H1.3zM1.7,2.6H1.8V2.7H1.7zM2.2,2.6H2.3V2.7H2.2zM2.5,2.6H2.6V2.7H2.5zM2.6,2.6H2.7V2.7H2.6zM2.7,2.6H2.8V2.7H2.7zM2.8,2.6H2.9V2.7H2.8zM2.9,2.6H3V2.7H2.9zM3,2.6H3.1V2.7H3zM3.1,2.6H3.2V2.7H3.1zM3.3,2.6H3.4V2.7H3.3zM3.4,2.6H3.5V2.7H3.4zM1,2.7H1.1V2.8H1zM1.5,2.7H1.6V2.8H1.5zM1.7,2.7H1.8V2.8H1.7zM1.8,2.7H1.9V2.8H1.8zM2,2.7H2.1V2.8H2zM2.1,2.7H2.2V2.8H2.1zM2.2,2.7H2.3V2.8H2.2zM2.6,2.7H2.7V2.8H2.6zM3,2.7H3.1V2.8H3zM3.2,2.7H3.3V2.8H3.2zM3.4,2.7H3.5V2.8H3.4zM0.2,2.8H0.3V2.9H0.2zM0.3,2.8H0.4V2.9H0.3zM0.4,2.8H0.5V2.9H0.4zM0.5,2.8H0.6V2.9H0.5zM0.6,2.8H0.7V2.9H0.6zM0.7,2.8H0.8V2.9H0.7zM0.8,2.8H0.9V2.9H0.8zM1.2,2.8H1.3V2.9H1.2zM1.3,2.8H1.4V2.9H1.3zM1.4,2.8H1.5V2.9H1.4zM1.5,2.8H1.6V2.9H1.5zM1.6,2.8H1.7V2.9H1.6zM1.7,2.8H1.8V2.9H1.7zM1.8,2.8H1.9V2.9H1.8zM2,2.8H2.1V2.9H2zM2.2,2.8H2.3V2.9H2.2zM2.3,2.8H2.4V2.9H2.3zM2.4,2.8H2.5V2.9H2.4zM2.5,2.8H2.6V2.9H2.5zM2.6,2.8H2.7V2.9H2.6zM2.8,2.8H2.9V2.9H2.8zM3,2.8H3.1V2.9H3zM3.2,2.8H3.3V2.9H3.2zM3.3,2.8H3.4V2.9H3.3zM0.2,2.9H0.3V3H0.2zM0.8,2.9H0.9V3H0.8zM2.4,2.9H2.5V3H2.4zM2.5,2.9H2.6V3H2.5zM2.6,2.9H2.7V3H2.6zM3,2.9H3.1V3H3zM3.1,2.9H3.2V3H3.1zM3.2,2.9H3.3V3H3.2zM3.3,2.9H3.4V3H3.3zM0.2,3H0.3V3.1H0.2zM0.4,3H0.5V3.1H0.4zM0.5,3H0.6V3.1H0.5zM0.6,3H0.7V3.1H0.6zM0.8,3H0.9V3.1H0.8zM1.1,3H1.2V3.1H1.1zM1.3,3H1.4V3.1H1.3zM1.4,3H1.5V3.1H1.4zM1.5,3H1.6V3.1H1.5zM1.6,3H1.7V3.1H1.6zM1.7,3H1.8V3.1H1.7zM2,3H2.1V3.1H2zM2.1,3H2.2V3.1H2.1zM2.4,3H2.5V3.1H2.4zM2.6,3H2.7V3.1H2.6zM2.7,3H2.8V3.1H2.7zM2.8,3H2.9V3.1H2.8zM2.9,3H3V3.1H2.9zM3,3H3.1V3.1H3zM3.1,3H3.2V3.1H3.1zM3.3,3H3.4V3.1H3.3zM0.2,3.1H0.3V3.2H0.2zM0.4,3.1H0.5V3.2H0.4zM0.5,3.1H0.6V3.2H0.5zM0.6,3.1H0.7V3.2H0.6zM0.8,3.1H0.9V3.2H0.8zM1.2,3.1H1.3V3.2H1.2zM1.4,3.1H1.5V3.2H1.4zM1.5,3.1H1.6V3.2H1.5zM1.8,3.1H1.9V3.2H1.8zM1.9,3.1H2V3.2H1.9zM2.1,3.1H2.2V3.2H2.1zM2.2,3.1H2.3V3.2H2.2zM2.7,3.1H2.8V3.2H2.7zM2.9,3.1H3V3.2H2.9zM3,3.1H3.1V3.2H3zM3.1,3.1H3.2V3.2H3.1zM3.2,3.1H3.3V3.2H3.2zM3.3,3.1H3.4V3.2H3.3zM3.4,3.1H3.5V3.2H3.4zM0.2,3.2H0.3V3.3H0.2zM0.4,3.2H0.5V3.3H0.4zM0.5,3.2H0.6V3.3H0.5zM0.6,3.2H0.7V3.3H0.6zM0.8,3.2H0.9V3.3H0.8zM1.1,3.2H1.2V3.3H1.1zM1.3,3.2H1.4V3.3H1.3zM1.5,3.2H1.6V3.3H1.5zM1.8,3.2H1.9V3.3H1.8zM2.1,3.2H2.2V3.3H2.1zM2.3,3.2H2.4V3.3H2.3zM2.7,3.2H2.8V3.3H2.7zM2.9,3.2H3V3.3H2.9zM3,3.2H3.1V3.3H3zM3.2,3.2H3.3V3.3H3.2zM3.3,3.2H3.4V3.3H3.3zM3.4,3.2H3.5V3.3H3.4zM0.2,3.3H0.3V3.4H0.2zM0.8,3.3H0.9V3.4H0.8zM1.2,3.3H1.3V3.4H1.2zM1.3,3.3H1.4V3.4H1.3zM1.4,3.3H1.5V3.4H1.4zM1.5,3.3H1.6V3.4H1.5zM1.6,3.3H1.7V3.4H1.6zM1.7,3.3H1.8V3.4H1.7zM1.8,3.3H1.9V3.4H1.8zM2,3.3H2.1V3.4H2zM2.2,3.3H2.3V3.4H2.2zM2.4,3.3H2.5V3.4H2.4zM2.7,3.3H2.8V3.4H2.7zM2.9,3.3H3V3.4H2.9zM3,3.3H3.1V3.4H3zM3.1,3.3H3.2V3.4H3.1zM3.2,3.3H3.3V3.4H3.2zM0.2,3.4H0.3V3.5H0.2zM0.3,3.4H0.4V3.5H0.3zM0.4,3.4H0.5V3.5H0.4zM0.5,3.4H0.6V3.5H0.5zM0.6,3.4H0.7V3.5H0.6zM0.7,3.4H0.8V3.5H0.7zM0.8,3.4H0.9V3.5H0.8zM1,3.4H1.1V3.5H1zM1.1,3.4H1.2V3.5H1.1zM1.4,3.4H1.5V3.5H1.4zM1.9,3.4H2V3.5H1.9zM2.1,3.4H2.2V3.5H2.1zM2.5,3.4H2.6V3.5H2.5zM2.6,3.4H2.7V3.5H2.6zM2.7,3.4H2.8V3.5H2.7zM2.9,3.4H3V3.5H2.9zM3.1,3.4H3.2V3.5H3.1zM3.3,3.4H3.4V3.5H3.3z" fill="#0A0A0A"/>
    </g>
  </g>
  
  <text x="210" y="460" text-anchor="middle" font-family="Inter, sans-serif" 
        font-size="11" fill="#FFD700">Quét QR bằng camera điện thoại</text>
  
  <!-- 3 steps -->
  <g font-family="Inter, sans-serif" font-size="11" fill="#FAFAFA">
    <g transform="translate(50, 485)">
      <circle cx="0" cy="0" r="11" fill="#C9A200"/>
      <text x="0" y="3" text-anchor="middle" font-size="12" font-weight="bold" fill="#0A0A0A">1</text>
      <text x="18" y="3" font-size="11" fill="#FAFAFA">Chụp ảnh tại quán</text>
    </g>
    <g transform="translate(50, 510)">
      <circle cx="0" cy="0" r="11" fill="#C9A200"/>
      <text x="0" y="3" text-anchor="middle" font-size="12" font-weight="bold" fill="#0A0A0A">2</text>
      <text x="18" y="3" font-size="11" fill="#FAFAFA">Đăng FB / Zalo có tag</text>
    </g>
    <g transform="translate(50, 532)">
      <text x="18" y="3" font-size="10" fill="#FFD700" font-weight="600">#AURACafeSaDec</text>
    </g>
    <g transform="translate(50, 555)">
      <circle cx="0" cy="0" r="11" fill="#C9A200"/>
      <text x="0" y="3" text-anchor="middle" font-size="12" font-weight="bold" fill="#0A0A0A">3</text>
      <text x="18" y="3" font-size="11" fill="#FAFAFA">Đưa nhân viên approve</text>
    </g>
  </g>
  
  <line x1="80" y1="572" x2="340" y2="572" stroke="#C9A200" stroke-width="0.5" opacity="0.3"/>
  <text x="210" y="584" text-anchor="middle" font-family="Inter, sans-serif" 
        font-size="8" fill="#707070" letter-spacing="1">
    Áp dụng 06/06 - 30/06/2026 · Cap 1 lần/khách/tháng
  </text>
</svg>